<svg xmlns="http://www.w3.org/2000/svg" width="1600" height="980" viewBox="0 0 1600 980" role="img" aria-labelledby="title desc">
  <title id="title">Mapping Studio Mockup</title>
  <desc id="desc">Mockup of a clean mapping studio screen showing system setup, field links, and validation feedback.</desc>
  <defs>
    <linearGradient id="bg" x1="0" y1="0" x2="1" y2="1">
      <stop offset="0%" stop-color="#f9fafb"/>
      <stop offset="100%" stop-color="#eef2ff"/>
    </linearGradient>
    <linearGradient id="hero" x1="0" y1="0" x2="1" y2="0">
      <stop offset="0%" stop-color="#1d4ed8"/>
      <stop offset="100%" stop-color="#0f766e"/>
    </linearGradient>
    <filter id="soft" x="-20%" y="-20%" width="140%" height="140%">
      <feDropShadow dx="0" dy="6" stdDeviation="10" flood-color="#0f172a" flood-opacity="0.10"/>
    </filter>
  </defs>

  <rect width="1600" height="980" fill="url(#bg)"/>

  <rect x="44" y="34" width="1512" height="96" rx="24" fill="url(#hero)" filter="url(#soft)"/>
  <text x="82" y="80" fill="#ffffff" font-family="'IBM Plex Sans','Source Sans Pro','Helvetica Neue',sans-serif" font-size="34" font-weight="700">Mapping Studio</text>
  <text x="82" y="110" fill="#dbeafe" font-family="'IBM Plex Sans','Source Sans Pro','Helvetica Neue',sans-serif" font-size="18">Create and validate cross-system ID mappings with instant schema hints.</text>

  <rect x="1240" y="62" width="264" height="42" rx="12" fill="#eff6ff"/>
  <text x="1302" y="89" fill="#1d4ed8" font-family="'IBM Plex Sans','Source Sans Pro','Helvetica Neue',sans-serif" font-size="16" font-weight="700">Auto Validate: ON</text>

  <rect x="64" y="166" width="338" height="700" rx="20" fill="#ffffff" filter="url(#soft)"/>
  <text x="96" y="212" fill="#0f172a" font-family="'IBM Plex Sans','Source Sans Pro','Helvetica Neue',sans-serif" font-size="24" font-weight="700">System Setup</text>

  <text x="96" y="252" fill="#334155" font-family="'IBM Plex Sans','Source Sans Pro','Helvetica Neue',sans-serif" font-size="15" font-weight="600">Mapping Name</text>
  <rect x="96" y="264" width="274" height="46" rx="10" fill="#f8fafc" stroke="#cbd5e1"/>
  <text x="112" y="293" fill="#475569" font-family="'IBM Plex Sans','Source Sans Pro','Helvetica Neue',sans-serif" font-size="14">product-sync-enterprise</text>

  <text x="96" y="340" fill="#334155" font-family="'IBM Plex Sans','Source Sans Pro','Helvetica Neue',sans-serif" font-size="15" font-weight="600">System 1</text>
  <rect x="96" y="352" width="274" height="54" rx="12" fill="#eef2ff" stroke="#bfdbfe"/>
  <text x="116" y="385" fill="#1e3a8a" font-family="'IBM Plex Sans','Source Sans Pro','Helvetica Neue',sans-serif" font-size="16" font-weight="700">Shopify Catalog</text>

  <text x="96" y="434" fill="#334155" font-family="'IBM Plex Sans','Source Sans Pro','Helvetica Neue',sans-serif" font-size="15" font-weight="600">File Type</text>
  <rect x="96" y="446" width="274" height="46" rx="10" fill="#f8fafc" stroke="#cbd5e1"/>
  <text x="112" y="475" fill="#475569" font-family="'IBM Plex Sans','Source Sans Pro','Helvetica Neue',sans-serif" font-size="14">JSON</text>

  <text x="96" y="520" fill="#334155" font-family="'IBM Plex Sans','Source Sans Pro','Helvetica Neue',sans-serif" font-size="15" font-weight="600">System 2</text>
  <rect x="96" y="532" width="274" height="54" rx="12" fill="#ecfeff" stroke="#99f6e4"/>
  <text x="116" y="565" fill="#134e4a" font-family="'IBM Plex Sans','Source Sans Pro','Helvetica Neue',sans-serif" font-size="16" font-weight="700">NetSuite Feed</text>

  <text x="96" y="614" fill="#334155" font-family="'IBM Plex Sans','Source Sans Pro','Helvetica Neue',sans-serif" font-size="15" font-weight="600">File Type</text>
  <rect x="96" y="626" width="274" height="46" rx="10" fill="#f8fafc" stroke="#cbd5e1"/>
  <text x="112" y="655" fill="#475569" font-family="'IBM Plex Sans','Source Sans Pro','Helvetica Neue',sans-serif" font-size="14">CSV</text>

  <rect x="96" y="710" width="274" height="96" rx="14" fill="#f8fafc" stroke="#cbd5e1"/>
  <text x="112" y="744" fill="#334155" font-family="'IBM Plex Sans','Source Sans Pro','Helvetica Neue',sans-serif" font-size="14" font-weight="600">ID Normalizer</text>
  <text x="112" y="770" fill="#64748b" font-family="'IBM Plex Sans','Source Sans Pro','Helvetica Neue',sans-serif" font-size="13">SHOPIFY_GID_TAIL</text>

  <rect x="426" y="166" width="760" height="700" rx="20" fill="#ffffff" filter="url(#soft)"/>
  <text x="458" y="212" fill="#0f172a" font-family="'IBM Plex Sans','Source Sans Pro','Helvetica Neue',sans-serif" font-size="24" font-weight="700">Field Link Canvas</text>

  <rect x="458" y="236" width="300" height="596" rx="14" fill="#f8fafc" stroke="#dbeafe"/>
  <text x="484" y="270" fill="#1e3a8a" font-family="'IBM Plex Sans','Source Sans Pro','Helvetica Neue',sans-serif" font-size="16" font-weight="700">Shopify Fields</text>

  <rect x="486" y="290" width="244" height="44" rx="10" fill="#ffffff" stroke="#bfdbfe"/>
  <text x="502" y="318" fill="#334155" font-family="'IBM Plex Sans','Source Sans Pro','Helvetica Neue',sans-serif" font-size="14">$.products[*].id</text>
  <rect x="486" y="352" width="244" height="44" rx="10" fill="#ffffff" stroke="#bfdbfe"/>
  <text x="502" y="380" fill="#334155" font-family="'IBM Plex Sans','Source Sans Pro','Helvetica Neue',sans-serif" font-size="14">$.products[*].sku</text>
  <rect x="486" y="414" width="244" height="44" rx="10" fill="#ffffff" stroke="#bfdbfe"/>
  <text x="502" y="442" fill="#334155" font-family="'IBM Plex Sans','Source Sans Pro','Helvetica Neue',sans-serif" font-size="14">$.products[*].barcode</text>
  <rect x="486" y="476" width="244" height="44" rx="10" fill="#ffffff" stroke="#bfdbfe"/>
  <text x="502" y="504" fill="#334155" font-family="'IBM Plex Sans','Source Sans Pro','Helvetica Neue',sans-serif" font-size="14">$.products[*].title</text>

  <rect x="852" y="236" width="300" height="596" rx="14" fill="#f8fafc" stroke="#99f6e4"/>
  <text x="878" y="270" fill="#115e59" font-family="'IBM Plex Sans','Source Sans Pro','Helvetica Neue',sans-serif" font-size="16" font-weight="700">NetSuite Fields</text>

  <rect x="880" y="290" width="244" height="44" rx="10" fill="#ffffff" stroke="#99f6e4"/>
  <text x="896" y="318" fill="#334155" font-family="'IBM Plex Sans','Source Sans Pro','Helvetica Neue',sans-serif" font-size="14">item_external_id</text>
  <rect x="880" y="352" width="244" height="44" rx="10" fill="#ffffff" stroke="#99f6e4"/>
  <text x="896" y="380" fill="#334155" font-family="'IBM Plex Sans','Source Sans Pro','Helvetica Neue',sans-serif" font-size="14">sku</text>
  <rect x="880" y="414" width="244" height="44" rx="10" fill="#ffffff" stroke="#99f6e4"/>
  <text x="896" y="442" fill="#334155" font-family="'IBM Plex Sans','Source Sans Pro','Helvetica Neue',sans-serif" font-size="14">upc_code</text>
  <rect x="880" y="476" width="244" height="44" rx="10" fill="#ffffff" stroke="#99f6e4"/>
  <text x="896" y="504" fill="#334155" font-family="'IBM Plex Sans','Source Sans Pro','Helvetica Neue',sans-serif" font-size="14">display_name</text>

  <line x1="730" y1="312" x2="880" y2="312" stroke="#0ea5e9" stroke-width="3"/>
  <line x1="730" y1="374" x2="880" y2="374" stroke="#0ea5e9" stroke-width="3"/>
  <line x1="730" y1="436" x2="880" y2="436" stroke="#0ea5e9" stroke-width="3"/>
  <line x1="730" y1="498" x2="880" y2="498" stroke="#0ea5e9" stroke-width="3"/>

  <circle cx="730" cy="312" r="5" fill="#0284c7"/>
  <circle cx="880" cy="312" r="5" fill="#0284c7"/>
  <circle cx="730" cy="374" r="5" fill="#0284c7"/>
  <circle cx="880" cy="374" r="5" fill="#0284c7"/>
  <circle cx="730" cy="436" r="5" fill="#0284c7"/>
  <circle cx="880" cy="436" r="5" fill="#0284c7"/>
  <circle cx="730" cy="498" r="5" fill="#0284c7"/>
  <circle cx="880" cy="498" r="5" fill="#0284c7"/>

  <rect x="1210" y="166" width="326" height="700" rx="20" fill="#ffffff" filter="url(#soft)"/>
  <text x="1242" y="212" fill="#0f172a" font-family="'IBM Plex Sans','Source Sans Pro','Helvetica Neue',sans-serif" font-size="24" font-weight="700">Validation</text>

  <rect x="1242" y="238" width="262" height="44" rx="10" fill="#dcfce7"/>
  <text x="1260" y="266" fill="#166534" font-family="'IBM Plex Sans','Source Sans Pro','Helvetica Neue',sans-serif" font-size="14" font-weight="700">Schema pair compatible</text>

  <rect x="1242" y="294" width="262" height="44" rx="10" fill="#dcfce7"/>
  <text x="1260" y="322" fill="#166534" font-family="'IBM Plex Sans','Source Sans Pro','Helvetica Neue',sans-serif" font-size="14" font-weight="700">ID paths resolved</text>

  <rect x="1242" y="350" width="262" height="44" rx="10" fill="#fef3c7"/>
  <text x="1260" y="378" fill="#92400e" font-family="'IBM Plex Sans','Source Sans Pro','Helvetica Neue',sans-serif" font-size="14" font-weight="700">Normalizer recommended</text>

  <rect x="1242" y="426" width="262" height="178" rx="12" fill="#f8fafc" stroke="#cbd5e1"/>
  <text x="1260" y="458" fill="#334155" font-family="'IBM Plex Sans','Source Sans Pro','Helvetica Neue',sans-serif" font-size="14" font-weight="600">Preview Output</text>
  <text x="1260" y="486" fill="#64748b" font-family="'IBM Plex Sans','Source Sans Pro','Helvetica Neue',sans-serif" font-size="12">system1: gid://shopify/Product/30241</text>
  <text x="1260" y="509" fill="#64748b" font-family="'IBM Plex Sans','Source Sans Pro','Helvetica Neue',sans-serif" font-size="12">after normalize: 30241</text>
  <text x="1260" y="532" fill="#64748b" font-family="'IBM Plex Sans','Source Sans Pro','Helvetica Neue',sans-serif" font-size="12">system2: 30241</text>
  <text x="1260" y="555" fill="#64748b" font-family="'IBM Plex Sans','Source Sans Pro','Helvetica Neue',sans-serif" font-size="12">comparison: exact_match</text>

  <rect x="1242" y="634" width="262" height="52" rx="10" fill="#1d4ed8"/>
  <text x="1305" y="667" fill="#ffffff" font-family="'IBM Plex Sans','Source Sans Pro','Helvetica Neue',sans-serif" font-size="18" font-weight="700">Save Mapping</text>

  <rect x="1242" y="698" width="262" height="52" rx="10" fill="#ffffff" stroke="#94a3b8"/>
  <text x="1307" y="731" fill="#334155" font-family="'IBM Plex Sans','Source Sans Pro','Helvetica Neue',sans-serif" font-size="18" font-weight="700">Run Dry Test</text>

  <rect x="64" y="888" width="1472" height="58" rx="14" fill="#ffffff" stroke="#cbd5e1"/>
  <text x="92" y="924" fill="#475569" font-family="'IBM Plex Sans','Source Sans Pro','Helvetica Neue',sans-serif" font-size="15">Tip: keep ID expressions source specific and let normalizers handle format differences.</text>
</svg>
